<?xml version="1.0" encoding="UTF-8" standalone="no"?>
<svg
   xmlns:dc="http://purl.org/dc/elements/1.1/"
   xmlns:cc="http://creativecommons.org/ns#"
   xmlns:rdf="http://www.w3.org/1999/02/22-rdf-syntax-ns#"
   xmlns:svg="http://www.w3.org/2000/svg"
   xmlns="http://www.w3.org/2000/svg"
   xmlns:sodipodi="http://sodipodi.sourceforge.net/DTD/sodipodi-0.dtd"
   xmlns:inkscape="http://www.inkscape.org/namespaces/inkscape"
   version="1.1"
   id="Layer_1"
   x="0px"
   y="0px"
   viewBox="0 0 490 490"
   style="enable-background:new 0 0 490 490;"
   xml:space="preserve"
   sodipodi:docname="item-fingerprint.svg"
   inkscape:version="1.0.2 (1.0.2+r75+1)"><metadata
   id="metadata66"><rdf:RDF><cc:Work
       rdf:about=""><dc:format>image/svg+xml</dc:format><dc:type
         rdf:resource="http://purl.org/dc/dcmitype/StillImage" /><dc:title></dc:title></cc:Work></rdf:RDF></metadata><defs
   id="defs64" /><sodipodi:namedview
   pagecolor="#ffffff"
   bordercolor="#666666"
   borderopacity="1"
   objecttolerance="10"
   gridtolerance="10"
   guidetolerance="10"
   inkscape:pageopacity="0"
   inkscape:pageshadow="2"
   inkscape:window-width="1391"
   inkscape:window-height="839"
   id="namedview62"
   showgrid="false"
   inkscape:zoom="1.2390125"
   inkscape:cx="245"
   inkscape:cy="245"
   inkscape:window-x="49"
   inkscape:window-y="24"
   inkscape:window-maximized="1"
   inkscape:current-layer="g26" />
<g
   id="g29">
	<g
   id="XMLID_25_">
		<g
   id="g6">
			<polygon
   style="fill:#AFB6BB;"
   points="430,100 340,100 340,10    "
   id="polygon2" />
			<polygon
   style="fill:#FFFFFF;"
   points="430,100 430,480 60,480 60,10 340,10 340,100    "
   id="polygon4" />
		</g>
		<g
   id="g26">
			<path
   style="fill:#231F20;"
   d="M439.976,100c-0.001-2.602-0.993-5.159-2.905-7.071l-90-90c-1.913-1.912-4.47-2.904-7.071-2.905V0     H60c-5.523,0-10,4.477-10,10v470c0,5.523,4.477,10,10,10h370c5.523,0,10-4.477,10-10V100H439.976z M350,34.142L405.858,90H350     V34.142z M70,470V20h260v80c0,5.523,4.477,10,10,10h80v360H70z"
   id="path8" />
			
			
			
			
			
			
			
			
		<g
   id="g150"
   transform="matrix(0.74431085,0,0,0.77964799,53.591131,57.966249)"><g
     id="g76">
	
	
	
	
</g><path
     d="m 256,196.085 c -4.512,0 -8.17,3.658 -8.17,8.17 v 87.149 c 0,13.516 10.996,24.511 24.511,24.511 13.515,0 24.511,-10.995 24.511,-24.511 v -87.149 c 0,-22.526 -18.325,-40.851 -40.851,-40.851 -22.526,0 -40.851,18.325 -40.851,40.851 v 87.149 c 0,31.536 25.656,57.191 57.191,57.191 31.535,0 57.191,-25.656 57.191,-57.191 v -54.468 c 0,-4.512 -3.657,-8.17 -8.17,-8.17 -4.513,0 -8.17,3.658 -8.17,8.17 v 54.468 c 0,22.526 -18.325,40.851 -40.851,40.851 -22.526,0 -40.851,-18.325 -40.851,-40.851 v -87.149 c 0,-13.516 10.995,-24.511 24.511,-24.511 13.515,0 24.511,10.995 24.511,24.511 v 87.149 c 0,4.506 -3.665,8.17 -8.17,8.17 -4.506,0 -8.17,-3.665 -8.17,-8.17 v -87.149 c -0.002,-4.512 -3.659,-8.17 -8.172,-8.17 z"
     id="path78" /><path
     d="m 256,130.723 c -40.546,0 -73.532,32.986 -73.532,73.532 v 87.149 c 0,49.556 40.316,89.872 89.872,89.872 49.555,0 89.872,-40.316 89.872,-89.872 v -87.149 c 0,-58.566 -47.647,-106.213 -106.213,-106.213 -58.566,0 -106.212,47.647 -106.212,106.218 l 0.034,57.199 c 0.002,4.511 3.659,8.166 8.17,8.166 4.516,-0.002 8.172,-3.662 8.17,-8.175 l -0.034,-57.195 c 0,-49.556 40.316,-89.872 89.872,-89.872 49.555,0 89.872,40.316 89.872,89.872 v 87.149 c 0,40.546 -32.986,73.532 -73.532,73.532 -40.546,0 -73.532,-32.986 -73.532,-73.532 v -87.149 c 0,-31.536 25.656,-57.191 57.191,-57.191 31.535,0 57.191,25.656 57.191,57.191 0,4.512 3.657,8.17 8.17,8.17 4.513,0 8.17,-3.658 8.17,-8.17 0.003,-40.546 -32.983,-73.532 -73.529,-73.532 z"
     id="path80" /><path
     d="m 92.596,212.426 c 4.512,0 8.17,-3.658 8.17,-8.17 0,-85.597 69.637,-155.234 155.234,-155.234 85.597,0 155.234,69.637 155.234,155.234 v 41.396 c 0,4.506 -3.665,8.17 -8.17,8.17 -4.505,0 -8.17,-3.665 -8.17,-8.17 V 204.256 C 394.894,127.67 332.587,65.362 256,65.362 c -76.587,0 -138.894,62.307 -138.894,138.894 v 87.149 c 0,85.597 69.637,155.234 155.234,155.234 85.597,0 155.234,-69.637 155.234,-155.234 0,-4.512 -3.657,-8.17 -8.17,-8.17 -4.513,0 -8.17,3.658 -8.17,8.17 0,76.587 -62.307,138.894 -138.894,138.894 -76.587,0 -138.894,-62.307 -138.894,-138.894 v -87.149 c 0,-67.576 54.977,-122.553 122.553,-122.553 67.575,0 122.553,54.977 122.553,122.553 v 41.396 c 0,13.516 10.996,24.511 24.511,24.511 13.515,0 24.511,-10.995 24.511,-24.511 V 204.256 C 427.574,109.649 350.606,32.682 256,32.682 c -94.606,0 -171.574,76.967 -171.574,171.573 0,4.512 3.658,8.171 8.17,8.171 z"
     id="path82" /><path
     d="m 272.34,462.979 c -94.607,0 -171.574,-76.968 -171.574,-171.574 v -54.468 c 0,-4.512 -3.658,-8.17 -8.17,-8.17 -4.512,0 -8.17,3.658 -8.17,8.17 v 54.468 c 0,103.617 84.298,187.915 187.915,187.915 4.513,0 8.17,-3.658 8.17,-8.17 0,-4.513 -3.657,-8.171 -8.171,-8.171 z"
     id="path84" /><path
     d="m 272.34,413.957 c 67.576,0 122.553,-54.977 122.553,-122.553 0,-4.512 -3.657,-8.17 -8.17,-8.17 -4.513,0 -8.17,3.658 -8.17,8.17 0,58.566 -47.647,106.213 -106.213,106.213 -58.566,0 -106.212,-47.647 -106.212,-106.213 0,-4.512 -3.658,-8.17 -8.17,-8.17 -4.512,0 -8.17,3.658 -8.17,8.17 -0.001,67.577 54.976,122.553 122.552,122.553 z"
     id="path86" /><g
     id="g88">
</g><g
     id="g90">
</g><g
     id="g92">
</g><g
     id="g94">
</g><g
     id="g96">
</g><g
     id="g98">
</g><g
     id="g100">
</g><g
     id="g102">
</g><g
     id="g104">
</g><g
     id="g106">
</g><g
     id="g108">
</g><g
     id="g110">
</g><g
     id="g112">
</g><g
     id="g114">
</g><g
     id="g116">
</g></g></g>
	</g>
</g>
<g
   id="g31">
</g>
<g
   id="g33">
</g>
<g
   id="g35">
</g>
<g
   id="g37">
</g>
<g
   id="g39">
</g>
<g
   id="g41">
</g>
<g
   id="g43">
</g>
<g
   id="g45">
</g>
<g
   id="g47">
</g>
<g
   id="g49">
</g>
<g
   id="g51">
</g>
<g
   id="g53">
</g>
<g
   id="g55">
</g>
<g
   id="g57">
</g>
<g
   id="g59">
</g>
</svg>
