<?xml version="1.0" encoding="UTF-8" standalone="no"?>
<svg
   xmlns:dc="http://purl.org/dc/elements/1.1/"
   xmlns:cc="http://creativecommons.org/ns#"
   xmlns:rdf="http://www.w3.org/1999/02/22-rdf-syntax-ns#"
   xmlns:svg="http://www.w3.org/2000/svg"
   xmlns="http://www.w3.org/2000/svg"
   xmlns:sodipodi="http://sodipodi.sourceforge.net/DTD/sodipodi-0.dtd"
   xmlns:inkscape="http://www.inkscape.org/namespaces/inkscape"
   version="1.1"
   id="Capa_1"
   x="0px"
   y="0px"
   viewBox="0 0 455.239 455.239"
   style="enable-background:new 0 0 455.239 455.239;"
   xml:space="preserve"
   sodipodi:docname="chair.svg"
   inkscape:version="1.0.2 (1.0.2+r75+1)"><metadata
   id="metadata39"><rdf:RDF><cc:Work
       rdf:about=""><dc:format>image/svg+xml</dc:format><dc:type
         rdf:resource="http://purl.org/dc/dcmitype/StillImage" /></cc:Work></rdf:RDF></metadata><defs
   id="defs37" /><sodipodi:namedview
   pagecolor="#ffffff"
   bordercolor="#666666"
   borderopacity="1"
   objecttolerance="10"
   gridtolerance="10"
   guidetolerance="10"
   inkscape:pageopacity="0"
   inkscape:pageshadow="2"
   inkscape:window-width="1391"
   inkscape:window-height="839"
   id="namedview35"
   showgrid="false"
   inkscape:zoom="1.1050826"
   inkscape:cx="266.77566"
   inkscape:cy="235.10773"
   inkscape:window-x="49"
   inkscape:window-y="24"
   inkscape:window-maximized="1"
   inkscape:current-layer="Capa_1" />
<g
   id="g161"><rect
     style="fill:#2a7fff"
     id="rect88"
     width="6.0284624"
     height="41.812336"
     x="335.83801"
     y="7" /><rect
     style="fill:#2a7fff"
     id="rect90"
     width="9.1240568"
     height="64.603241"
     x="323.17831"
     y="69.83271" /><rect
     style="fill:#2a7fff"
     id="rect92"
     width="9.8690891"
     height="56.771278"
     x="328.44141"
     y="32.229977" /><rect
     style="fill:#2a7fff"
     id="rect94"
     width="6.231842"
     height="17.404247"
     x="324.10678"
     y="61.470642" /><rect
     style="fill:#2a7fff"
     id="rect96"
     width="12.336334"
     height="32.88628"
     x="332.07394"
     y="4.5239296" /></g><g
   id="g154"><rect
     style="fill:#2a7fff"
     id="rect45"
     width="11.284929"
     height="144.93599"
     x="112.508"
     y="303.30402" /><rect
     style="fill:#2a7fff"
     id="rect49"
     width="192.35458"
     height="26.807823"
     x="127.96752"
     y="223.44247" /><rect
     style="fill:#2a7fff"
     id="rect51"
     width="36.295132"
     height="8.7339163"
     x="284.02698"
     y="223.44247" /><rect
     style="fill:#2a7fff"
     id="rect53"
     width="11.516821"
     height="87.380707"
     x="116.02505"
     y="230.37193" /><rect
     style="fill:#2a7fff"
     id="rect59"
     width="6.8397126"
     height="18.086603"
     x="127.57445"
     y="253.8107" /><rect
     style="fill:#2a7fff"
     id="rect61"
     width="15.846636"
     height="6.3204694"
     x="-61.067684"
     y="282.70187"
     transform="rotate(-39.390663)" /><rect
     style="fill:#2a7fff"
     id="rect66"
     width="7.4939218"
     height="10.408558"
     x="125.96752"
     y="223.44247" /><rect
     style="fill:#2a7fff"
     id="rect61-3"
     width="15.846636"
     height="6.3204694"
     x="-55.651917"
     y="255.83"
     transform="rotate(-39.390663)" /><rect
     style="fill:#2a7fff"
     id="rect98"
     width="4.6488361"
     height="56.771225"
     x="322.07315"
     y="104.04946" /><rect
     style="fill:#2a7fff"
     id="rect100"
     width="13.712143"
     height="29.138025"
     x="314.24356"
     y="135.83035" /><rect
     style="fill:#2a7fff;stroke-width:1.31664"
     id="rect102"
     width="5.7052326"
     height="30.180122"
     x="317.3941"
     y="112.76431" /><rect
     style="fill:#2a7fff"
     id="rect104"
     width="10.559589"
     height="59.838924"
     x="312.29068"
     y="163.91927" /><rect
     style="fill:#2a7fff"
     id="rect106"
     width="35.145348"
     height="9.7879934"
     x="284.39413"
     y="219.42645" /><rect
     style="fill:#2a7fff"
     id="rect108"
     width="27.676962"
     height="9.8839903"
     x="295.93643"
     y="211.99799" /><rect
     style="fill:#2a7fff;stroke-width:0.822287"
     id="rect110"
     width="15.026589"
     height="30.622353"
     x="307.85059"
     y="183.51126" /><rect
     style="fill:#2a7fff"
     id="rect112"
     width="6.0629139"
     height="8.61549"
     x="303.19357"
     y="205.75868" /><rect
     style="fill:#2a7fff"
     id="rect114"
     width="32.919815"
     height="8.9447899"
     x="290.46442"
     y="248.13063" /><rect
     style="fill:#2a7fff"
     id="rect116"
     width="22.52784"
     height="10.285662"
     x="300.68011"
     y="256.19794" /><rect
     style="fill:#2a7fff;stroke-width:0.954132"
     id="rect118"
     width="17.287088"
     height="29.048729"
     x="308.75293"
     y="263.70041" /><rect
     style="fill:#2a7fff"
     id="rect120"
     width="17.330164"
     height="35.15881"
     x="312.16901"
     y="291.58398" /><rect
     style="fill:#2a7fff"
     id="rect122"
     width="16.391552"
     height="37.489872"
     x="316.96274"
     y="323.32135" /><rect
     style="fill:#2a7fff"
     id="rect124"
     width="14.826788"
     height="34.56673"
     x="321.27499"
     y="357.47742" /><rect
     style="fill:#2a7fff"
     id="rect126"
     width="14.817647"
     height="30.612198"
     x="325.91525"
     y="389.12595" /><rect
     style="fill:#2a7fff"
     id="rect128"
     width="12.643965"
     height="32.704445"
     x="331.04184"
     y="419.0744" /></g><path
   d="M330.222,153.631L350.007,0h-20.325l-24.765,192.285c-1.954,15.181-14.971,26.628-30.276,26.628H132.733  c-10.491,0-19.031,8.516-19.07,18.999l-8.431,217.327h20.265l7.128-172.884c0.652-15.841,13.583-28.249,29.438-28.249h113.838  c14.606,0,27.15,10.908,29.178,25.374l24.637,175.759h20.269l-20.16-163.974C324.209,245.583,324.343,199.276,330.222,153.631z   M335.804,448.239l-23.793-169.73c-2.509-17.902-18.032-31.402-36.109-31.402H162.063c-19.622,0-35.625,15.356-36.433,34.961  l-6.851,166.172h-6.271l8.15-210.12l0.003-0.136c0-6.655,5.415-12.07,12.07-12.07h141.907c18.815,0,34.816-14.072,37.22-32.733  L335.838,7h6.21l-18.77,145.736c-5.953,46.226-6.089,93.121-0.401,139.383l19.193,156.12H335.804z"
   id="path2" />
<g
   id="g4">
</g>
<g
   id="g6">
</g>
<g
   id="g8">
</g>
<g
   id="g10">
</g>
<g
   id="g12">
</g>
<g
   id="g14">
</g>
<g
   id="g16">
</g>
<g
   id="g18">
</g>
<g
   id="g20">
</g>
<g
   id="g22">
</g>
<g
   id="g24">
</g>
<g
   id="g26">
</g>
<g
   id="g28">
</g>
<g
   id="g30">
</g>
<g
   id="g32">
</g>
<path
   style="fill:#2a7fff;stroke-width:0.749838"
   d="m 112.89423,447.78526 c 0,-11.75322 8.4852,-212.44321 9.04431,-213.91377 1.14852,-3.02085 2.88406,-4.76024 6.32737,-6.34142 2.84558,-1.30669 6.80698,-1.37815 77.26328,-1.39377 81.64328,-0.0181 78.45879,0.15031 87.41467,-4.62312 5.28875,-2.81888 12.51717,-10.18034 15.20536,-15.48523 1.0942,-2.15928 2.46959,-5.861 3.05643,-8.22603 0.58686,-2.36504 6.32852,-45.46619 12.75926,-95.78035 6.43074,-50.314159 11.85369,-92.2395007 12.051,-93.1674258 0.29077,-1.3674493 0.86582,-1.6871364 3.0348,-1.6871364 2.67089,0 2.67521,0.00543 2.23476,2.8118941 -1.39507,8.8891851 -19.38297,150.9120681 -20.3,160.2779681 -3.47031,35.44331 -3.46102,72.26328 0.0272,107.60181 0.63097,6.39237 5.52012,47.1739 10.86477,90.62561 5.34465,43.45171 9.71754,79.13465 9.71754,79.29541 0,0.16077 -1.17457,0.29231 -2.61015,0.29231 -2.09523,0 -2.68451,-0.33283 -2.98712,-1.68714 -0.20733,-0.92793 -5.61918,-39.31028 -12.02634,-85.29412 -6.63146,-47.59367 -12.29445,-85.77436 -13.14696,-88.63866 -2.96481,-9.96138 -11.49072,-19.17215 -21.475,-23.20003 l -4.36721,-1.76183 h -66.3607 -66.36071 l -5.8551,2.79575 c -11.74867,5.6099 -19.27213,16.1583 -20.7531,29.0973 -0.39966,3.49178 -2.10478,41.77857 -3.78916,85.08174 -1.68437,43.30317 -3.22579,79.82967 -3.42537,81.17001 -0.32894,2.20911 -0.60509,2.43698 -2.95333,2.43698 -1.42475,0 -2.59045,-0.12904 -2.59045,-0.28675 z"
   id="path43" /></svg>
