<?xml version="1.0" encoding="UTF-8" standalone="no"?>
<svg
   xmlns:dc="http://purl.org/dc/elements/1.1/"
   xmlns:cc="http://creativecommons.org/ns#"
   xmlns:rdf="http://www.w3.org/1999/02/22-rdf-syntax-ns#"
   xmlns:svg="http://www.w3.org/2000/svg"
   xmlns="http://www.w3.org/2000/svg"
   xmlns:sodipodi="http://sodipodi.sourceforge.net/DTD/sodipodi-0.dtd"
   xmlns:inkscape="http://www.inkscape.org/namespaces/inkscape"
   version="1.1"
   id="Layer_1"
   x="0px"
   y="0px"
   viewBox="0 0 490.67 490.67"
   style="enable-background:new 0 0 490.67 490.67;"
   xml:space="preserve"
   sodipodi:docname="dining-table-2.svg"
   inkscape:version="1.0.2 (1.0.2+r75+1)"><metadata
   id="metadata42"><rdf:RDF><cc:Work
       rdf:about=""><dc:format>image/svg+xml</dc:format><dc:type
         rdf:resource="http://purl.org/dc/dcmitype/StillImage" /></cc:Work></rdf:RDF></metadata><defs
   id="defs40" /><sodipodi:namedview
   pagecolor="#ffffff"
   bordercolor="#666666"
   borderopacity="1"
   objecttolerance="10"
   gridtolerance="10"
   guidetolerance="10"
   inkscape:pageopacity="0"
   inkscape:pageshadow="2"
   inkscape:window-width="1391"
   inkscape:window-height="839"
   id="namedview38"
   showgrid="false"
   inkscape:zoom="1.2373206"
   inkscape:cx="242.26275"
   inkscape:cy="250.22028"
   inkscape:window-x="49"
   inkscape:window-y="24"
   inkscape:window-maximized="1"
   inkscape:current-layer="Layer_1" />
<g
   id="g66"><rect
     style="fill:#aa4400"
     id="rect48"
     width="475.44318"
     height="30.184719"
     x="9.9927435"
     y="65.81086" /><rect
     style="fill:#aa4400"
     id="rect50"
     width="61.229923"
     height="142.20387"
     x="213.83687"
     y="154.62212" /><rect
     style="fill:#aa4400"
     id="rect52"
     width="33.670986"
     height="16.457956"
     x="230.1071"
     y="290.20517" /><rect
     style="fill:#aa4400"
     id="rect54"
     width="46.561432"
     height="20.341627"
     x="221.44757"
     y="359.16037" /><rect
     style="fill:#aa4400"
     id="rect56"
     width="102.84122"
     height="45.561775"
     x="193.668"
     y="383.50201" /><rect
     style="fill:#aa4400"
     id="rect58"
     width="132.5601"
     height="16.343317"
     x="178.15822"
     y="410.68723" /></g><g
   id="XMLID_829_">
	<g
   id="g4">
		<path
   d="M490.67,111.167V57.499H0v53.668h237.668v30.666h-30.667v138.001c0,18.513,13.191,34.001,30.667,37.563v28.376    c-16.255,3.313-28.8,16.943-30.475,33.729h-15.525v7.667c0,8.455-6.878,15.333-15.333,15.333h-7.667v30.668h153.334v-30.668    h-7.667c-8.455,0-15.333-6.878-15.333-15.333v-7.667h-15.525c-1.674-16.785-14.22-30.416-30.475-33.729v-28.376    c17.476-3.562,30.667-19.05,30.667-37.563V141.833h-30.667v-30.666H490.67z M284.638,394.836    c2.78,10.761,11.269,19.25,22.03,22.029v0.971H184.002v-0.971c10.761-2.779,19.25-11.269,22.029-22.029H284.638z M268.009,379.502    H222.66c1.831-10.863,11.298-19.166,22.674-19.166C256.711,360.336,266.178,368.638,268.009,379.502z M268.335,157.167v122.667    c0,12.683-10.317,23-23,23c-12.683,0-23-10.317-23-23V157.167H268.335z M15.334,95.833v-23h460.002v23H15.334z"
   id="path2" />
	</g>
</g>
<g
   id="g7">
</g>
<g
   id="g9">
</g>
<g
   id="g11">
</g>
<g
   id="g13">
</g>
<g
   id="g15">
</g>
<g
   id="g17">
</g>
<g
   id="g19">
</g>
<g
   id="g21">
</g>
<g
   id="g23">
</g>
<g
   id="g25">
</g>
<g
   id="g27">
</g>
<g
   id="g29">
</g>
<g
   id="g31">
</g>
<g
   id="g33">
</g>
<g
   id="g35">
</g>
</svg>
