<?xml version="1.0" encoding="iso-8859-1"?>
<!-- Generator: Adobe Illustrator 19.0.0, SVG Export Plug-In . SVG Version: 6.00 Build 0)  -->
<svg version="1.1" id="Layer_1" xmlns="http://www.w3.org/2000/svg" xmlns:xlink="http://www.w3.org/1999/xlink" x="0px" y="0px"
	 viewBox="0 0 512 512" style="enable-background:new 0 0 512 512;" xml:space="preserve">
<rect x="420" y="392" style="fill:#554542;" width="28" height="28"/>
<path style="fill:#140500;" d="M448,424h-28c-2.4,0-4-1.6-4-4v-28c0-2.4,1.6-4,4-4h28c2.4,0,4,1.6,4,4v28
	C452,422.4,450.4,424,448,424z M424,416h20v-20h-20V416z"/>
<path style="fill:#BD8150;" d="M92,296v20v10c0,3.6,0.8,7.2,2.8,10c4,7.2,11.6,12,20,12H316v0.4l82.4-0.4l0,0
	c8.4,0,15.6-4.8,19.2-12c1.6-3.2,2.4-6.4,2.4-10v-10v-20H92z"/>
<rect x="64" y="392" style="fill:#554542;" width="28" height="28"/>
<path style="fill:#140500;" d="M92,424H64c-2.4,0-4-1.6-4-4v-28c0-2.4,1.6-4,4-4h28c2.4,0,4,1.6,4,4v28C96,422.4,94.4,424,92,424z
	 M68,416h20v-20H68V416z"/>
<path style="fill:#9F633C;" d="M409.6,92H104c-30.4,0-56,24.8-56,55.2V200h8.4v4H60c18,0,32.4,14.8,32.4,33.2V296h328v-58.8
	c0-18,15.6-33.2,33.6-33.2h0.8v-4h9.6v-52.8C464,116.8,440,92,409.6,92z M436,124l-26.4-12C420,112,429.6,116.8,436,124z"/>
<path style="fill:#895129;" d="M475.6,204h-21.2h-0.8c-18,0-33.6,14.8-33.6,33.2V296v20v10c0,3.6-0.8,7.2-2.4,10
	c-3.6,7.2-10.8,12-19.2,12l0,0l-82.4,0.4V348H114.8c-8.4,0-16.4-4.8-20-12c-1.6-3.2-2.8-6.4-2.8-10v-10v-20v-58.8
	c0-18-14-33.2-32.4-33.2H56H37.6C19.6,204,4,218.8,4,237.2V336l2.8-0.8v0.8H4c0,30.4,25.6,56,55.6,56H64h28h328h28h5.6
	c30.4,0,54.4-25.6,54.4-56v-98.8C508,218.8,493.6,204,475.6,204z M59.6,224c3.2,0,6.4,1.6,8.8,3.6L59.6,224z M504.4,336v-0.8
	l3.6,0.8H504.4z"/>
<polyline style="fill:#554542;" points="92,392 92,420 64,420 64,392 "/>
<path style="fill:#140500;" d="M92,424H64c-2.4,0-4-1.6-4-4v-28c0-2.4,1.6-4,4-4s4,1.6,4,4v24h20v-24c0-2.4,1.6-4,4-4s4,1.6,4,4v28
	C96,422.4,94.4,424,92,424z"/>
<polyline style="fill:#554542;" points="448,392 448,420 420,420 420,392 "/>
<path style="fill:#140500;" d="M448,424h-28c-2.4,0-4-1.6-4-4v-28c0-2.4,1.6-4,4-4s4,1.6,4,4v24h20v-24c0-2.4,1.6-4,4-4s4,1.6,4,4
	v28C452,422.4,450.4,424,448,424z"/>
<path d="M453.6,396h-394C27.2,396,0,368.4,0,336c0-2.4,1.6-4,4-4s4,1.6,4,4c0,28,23.6,52,51.6,52h394c27.6,0,50.4-23.2,50.4-52
	c0-2.4,1.6-4,4-4s4,1.6,4,4C512,369.2,486,396,453.6,396z"/>
<path d="M464,204c-2.4,0-4-1.6-4-4v-52.8c0-28-22.8-51.2-50.4-51.2H104c-28,0-52,23.2-52,51.2V200c0,2.4-1.6,4-4,4s-4-1.6-4-4v-52.8
	C44,114.8,70.8,88,104,88h305.6c32.4,0,58.4,26.4,58.4,59.2V200C468,202.4,466.4,204,464,204z"/>
<path d="M4,340c-2.4,0-4-1.6-4-4v-98.8c0-20,17.2-37.2,37.6-37.2h22c20,0,36.4,16.8,36.4,37.2V316c0,2.4-1.6,4-4,4s-4-1.6-4-4v-78.8
	c0-16.4-12.4-29.2-28.4-29.2h-22C21.6,208,8,221.2,8,237.2V336C8,338.4,6.4,340,4,340z"/>
<path d="M508,340c-2.4,0-4-1.6-4-4v-98.8c0-16-12.8-29.2-28.4-29.2h-22c-16,0-29.6,13.2-29.6,29.2V316c0,2.4-1.6,4-4,4s-4-1.6-4-4
	v-78.8c0-20,17.2-37.2,37.6-37.2h22c20,0,36.4,16.8,36.4,37.2V336C512,338.4,510.4,340,508,340z"/>
<path d="M420,300H92c-2.4,0-4-1.6-4-4s1.6-4,4-4h328c2.4,0,4,1.6,4,4S422.4,300,420,300z"/>
<path d="M316,352H114.8c-9.6,0-19.2-5.6-23.6-14c-2-3.6-3.2-7.6-3.2-12v-10c0-2.4,1.6-4,4-4s4,1.6,4,4v10c0,2.8,0.8,5.6,2,8
	c3.2,6,10,10,16.8,10H316c2.4,0,4,1.6,4,4S318.4,352,316,352z"/>
<path d="M398.4,352H364c-2.4,0-4-1.6-4-4s1.6-4,4-4h34.4c6.8,0,12.4-3.6,15.6-9.6c1.2-2.4,2-5.2,2-8.4v-10c0-2.4,1.6-4,4-4
	s4,1.6,4,4v10c0,4-0.8,8-2.8,11.6C416.8,346.4,408.4,352,398.4,352z"/>
<path d="M408,116h-16c-2.4,0-4-1.6-4-4s1.6-4,4-4h16c2.4,0,4,1.6,4,4S410.4,116,408,116z"/>
<path d="M372,116h-24c-2.4,0-4-1.6-4-4s1.6-4,4-4h24c2.4,0,4,1.6,4,4S374.4,116,372,116z"/>
<path d="M436,128c-1.2,0-2.4-0.4-3.2-1.2c-6-6.8-14.4-10.8-23.2-10.8c-2.4,0-4-1.6-4-4s1.6-4,4-4c11.2,0,22,4.8,29.6,13.2
	c1.6,1.6,1.2,4-0.4,5.6C438,127.6,436.8,128,436,128z"/>
<path d="M24,248c-2.4,0-4-1.6-4-4v-6.8c0-9.2,8.4-17.2,17.6-17.2H44c2.4,0,4,1.6,4,4s-1.6,4-4,4h-6.4c-4.8,0-9.6,4.4-9.6,9.2v6.8
	C28,246.4,26.4,248,24,248z"/>
<path d="M68.8,231.6c-0.8,0-2-0.4-2.8-1.2c-1.6-1.6-4-2.4-6-2.4c-2.4,0-4-1.6-4-4s1.6-4,4-4c4.4,0,8.4,1.6,11.6,4.8
	c1.6,1.6,1.6,4,0,5.6C70.8,231.2,69.6,231.6,68.8,231.6z"/>
<g>
</g>
<g>
</g>
<g>
</g>
<g>
</g>
<g>
</g>
<g>
</g>
<g>
</g>
<g>
</g>
<g>
</g>
<g>
</g>
<g>
</g>
<g>
</g>
<g>
</g>
<g>
</g>
<g>
</g>
</svg>
